<svg width="285" height="261" viewBox="0 0 285 261" fill="none" xmlns="http://www.w3.org/2000/svg">
<path d="M152.743 55.2524H10.2538V95.2551H152.743V55.2524Z" stroke="#263238" stroke-width="1.14333" stroke-linecap="round" stroke-linejoin="round"/>
<path d="M152.736 55.2236H10.2538L24.4994 29.4634H138.491L152.736 55.2236Z" stroke="#263238" stroke-width="1.14333" stroke-linecap="round" stroke-linejoin="round"/>
<path d="M24.4994 29.4635V1" stroke="#263238" stroke-width="1.14333" stroke-linecap="round" stroke-linejoin="round"/>
<path d="M139.167 29.4635V1" stroke="#263238" stroke-width="1.14333" stroke-linecap="round" stroke-linejoin="round"/>
<path d="M253.835 52.9589L254.657 19.7144C254.679 18.8815 254.999 18.0908 255.55 17.5097C256.101 16.9286 256.838 16.6028 257.606 16.6013C258.375 16.6011 259.112 16.9265 259.662 17.5081C260.212 18.0898 260.531 18.8816 260.55 19.7144L261.372 53.153" stroke="#263238" stroke-width="1.14333" stroke-linecap="round" stroke-linejoin="round"/>
<path d="M254.657 19.7144L254.458 27.6661H260.742L260.543 19.7144C260.507 18.8931 260.181 18.1183 259.632 17.5508C259.084 16.9833 258.355 16.6667 257.596 16.6667C256.838 16.6667 256.109 16.9833 255.561 17.5508C255.012 18.1183 254.686 18.8931 254.65 19.7144H254.657Z" stroke="#263238" stroke-width="1.14333" stroke-linecap="round" stroke-linejoin="round"/>
<path d="M265.668 96.4324C276.345 91.5386 281.342 78.1843 276.83 66.6048C272.318 55.0253 260.005 49.6054 249.328 54.4992C238.652 59.3929 233.654 72.7472 238.166 84.3267C242.679 95.9062 254.992 101.326 265.668 96.4324Z" stroke="#263238" stroke-width="1.14333" stroke-linecap="round" stroke-linejoin="round"/>
<path d="M273.518 79.5474C275.586 69.9587 270.094 60.3681 261.253 58.1262C252.412 55.8842 243.569 61.8399 241.502 71.4286C239.435 81.0173 244.927 90.6079 253.768 92.8499C262.609 95.0918 271.451 89.1361 273.518 79.5474Z" stroke="#263238" stroke-width="1.14333" stroke-linecap="round" stroke-linejoin="round"/>
<path d="M257.58 20.3974C257.876 20.3974 258.117 20.1367 258.117 19.8151C258.117 19.4935 257.876 19.2327 257.58 19.2327C257.283 19.2327 257.043 19.4935 257.043 19.8151C257.043 20.1367 257.283 20.3974 257.58 20.3974Z" stroke="#263238" stroke-width="1.14333" stroke-linecap="round" stroke-linejoin="round"/>
<path d="M213.55 48.5661L214.266 19.3621C214.285 18.6303 214.567 17.9355 215.051 17.4253C215.535 16.9151 216.183 16.6298 216.858 16.6301C217.534 16.6316 218.182 16.9185 218.666 17.4299C219.15 17.9412 219.431 18.6369 219.45 19.3693L220.173 48.7746" stroke="#263238" stroke-width="1.14333" stroke-linecap="round" stroke-linejoin="round"/>
<path d="M214.266 19.3621L214.094 26.3575H219.623L219.45 19.3693C219.45 18.6237 219.177 17.9087 218.691 17.3815C218.205 16.8543 217.546 16.5582 216.858 16.5582C216.171 16.5582 215.512 16.8543 215.026 17.3815C214.539 17.9087 214.266 18.6237 214.266 19.3693V19.3621Z" stroke="#263238" stroke-width="1.14333" stroke-linecap="round" stroke-linejoin="round"/>
<path d="M229.813 82.5172C237.018 74.7034 237.018 62.0347 229.813 54.2209C222.609 46.4071 210.928 46.4071 203.723 54.2209C196.519 62.0347 196.519 74.7034 203.723 82.5173C210.928 90.3311 222.609 90.3311 229.813 82.5172Z" stroke="#263238" stroke-width="1.14333" stroke-linecap="round" stroke-linejoin="round"/>
<path d="M226.608 79.8788C232.46 73.9871 232.8 64.0657 227.368 57.7187C221.936 51.3718 212.788 51.0028 206.936 56.8945C201.084 62.7863 200.743 72.7077 206.176 79.0547C211.608 85.4016 220.756 85.7706 226.608 79.8788Z" stroke="#263238" stroke-width="1.14333" stroke-linecap="round" stroke-linejoin="round"/>
<path d="M216.838 19.9445C217.102 19.9445 217.316 19.7127 217.316 19.4268C217.316 19.1409 217.102 18.9092 216.838 18.9092C216.575 18.9092 216.361 19.1409 216.361 19.4268C216.361 19.7127 216.575 19.9445 216.838 19.9445Z" stroke="#263238" stroke-width="1.14333" stroke-linecap="round" stroke-linejoin="round"/>
<path d="M178.39 44.8995L179.053 19.0171C179.069 18.3686 179.317 17.7524 179.746 17.2997C180.174 16.8471 180.749 16.594 181.347 16.5942C181.945 16.594 182.52 16.8471 182.948 17.2997C183.377 17.7524 183.625 18.3686 183.641 19.0171L184.304 45.0576" stroke="#263238" stroke-width="1.14333" stroke-linecap="round" stroke-linejoin="round"/>
<path d="M179.027 19.0242L178.874 25.2144H183.767L183.614 19.0242C183.614 18.3645 183.372 17.7317 182.942 17.2652C182.512 16.7987 181.929 16.5366 181.321 16.5366C180.712 16.5366 180.129 16.7987 179.699 17.2652C179.269 17.7317 179.027 18.3645 179.027 19.0242Z" stroke="#263238" stroke-width="1.14333" stroke-linecap="round" stroke-linejoin="round"/>
<path d="M181.234 80.1498C190.255 80.1498 197.568 72.2185 197.568 62.4347C197.568 52.651 190.255 44.7197 181.234 44.7197C172.213 44.7197 164.901 52.651 164.901 62.4347C164.901 72.2185 172.213 80.1498 181.234 80.1498Z" stroke="#263238" stroke-width="1.14333" stroke-linecap="round" stroke-linejoin="round"/>
<path d="M181.234 76.3178C188.304 76.3178 194.035 70.1021 194.035 62.4347C194.035 54.7673 188.304 48.5517 181.234 48.5517C174.165 48.5517 168.434 54.7673 168.434 62.4347C168.434 70.1021 174.165 76.3178 181.234 76.3178Z" stroke="#263238" stroke-width="1.14333" stroke-linecap="round" stroke-linejoin="round"/>
<path d="M181.718 19.1033C181.718 18.9832 181.674 18.868 181.596 18.7831C181.518 18.6981 181.411 18.6504 181.301 18.6504C181.19 18.6504 181.084 18.6981 181.005 18.7831C180.927 18.868 180.883 18.9832 180.883 19.1033C180.883 19.2235 180.927 19.3387 181.005 19.4236C181.084 19.5086 181.19 19.5563 181.301 19.5563C181.411 19.5563 181.518 19.5086 181.596 19.4236C181.674 19.3387 181.718 19.2235 181.718 19.1033Z" stroke="#263238" stroke-width="1.14333" stroke-linecap="round" stroke-linejoin="round"/>
<path d="M9.34564 211.424H249.957" stroke="#263238" stroke-width="1.14333" stroke-linecap="round" stroke-linejoin="round"/>
<path d="M9.34564 193.141H249.957" stroke="#263238" stroke-width="1.14333" stroke-linecap="round" stroke-linejoin="round"/>
<path d="M68.7411 88.7557C68.7411 88.7557 65.2741 100.647 65.0885 105.795C64.9029 110.943 71.6644 117.859 75.4761 121.842C79.2877 125.825 86.0824 127.594 95.5684 127.191C105.054 126.788 113.288 122.043 113.288 122.043C113.288 122.043 113.109 153.541 113.288 160.867C113.467 168.193 114.023 245.466 114.023 245.466H178.689C178.689 245.466 177.045 172.953 177.588 164.433C178.132 155.913 181.612 131.153 181.612 131.153C181.612 131.153 205.907 143.432 211.383 143.432C216.858 143.432 230.017 127.615 229.473 123.424C228.93 119.232 209.924 107.175 203.349 101.23C196.773 95.2838 194.214 89.5466 189.647 87.1668C185.079 84.7871 164.456 79.8335 159.869 79.2583C155.282 78.6831 130.463 80.2433 123.702 80.6387C116.94 81.0341 105.618 93.5224 102.88 95.7008C100.771 97.2996 98.5729 98.7547 96.2976 100.058C96.2976 100.058 97.398 98.6701 95.5684 98.2747C94.6683 98.0562 93.7522 97.9239 92.8307 97.8793C92.8307 97.8793 91.9159 86.376 91.1867 85.1969C90.4575 84.0178 79.6788 81.2354 75.6617 81.6021C71.6446 81.9688 68.7411 88.7557 68.7411 88.7557Z" fill="white"/>
<mask id="mask0_195_413" style="mask-type:luminance" maskUnits="userSpaceOnUse" x="65" y="79" width="165" height="167">
<path d="M68.7411 88.7557C68.7411 88.7557 65.2741 100.647 65.0885 105.795C64.9029 110.943 71.6644 117.859 75.4761 121.842C79.2877 125.825 86.0824 127.594 95.5684 127.191C105.054 126.788 113.288 122.043 113.288 122.043C113.288 122.043 113.109 153.541 113.288 160.867C113.467 168.193 114.023 245.466 114.023 245.466H178.689C178.689 245.466 177.045 172.953 177.588 164.433C178.132 155.913 181.612 131.153 181.612 131.153C181.612 131.153 205.907 143.432 211.383 143.432C216.858 143.432 230.017 127.615 229.473 123.424C228.93 119.232 209.924 107.175 203.349 101.23C196.773 95.2838 194.214 89.5466 189.647 87.1668C185.079 84.7871 164.456 79.8335 159.869 79.2583C155.282 78.6831 130.463 80.2433 123.702 80.6387C116.94 81.0341 105.618 93.5224 102.88 95.7008C100.771 97.2996 98.5729 98.7547 96.2976 100.058C96.2976 100.058 97.398 98.6701 95.5684 98.2747C94.6683 98.0562 93.7522 97.9239 92.8307 97.8793C92.8307 97.8793 91.9159 86.376 91.1867 85.1969C90.4575 84.0178 79.6788 81.2354 75.6617 81.6021C71.6446 81.9688 68.7411 88.7557 68.7411 88.7557Z" fill="white"/>
</mask>
<g mask="url(#mask0_195_413)">
<path d="M228.075 127.615C229.062 125.847 229.619 124.351 229.5 123.431C228.95 119.268 209.951 107.183 203.375 101.237C196.799 95.2911 194.24 89.5539 189.673 87.1741C185.106 84.7944 164.483 79.8408 159.896 79.2656C157.468 79.0975 155.034 79.0711 152.604 79.1865C158.007 85.2257 143.191 96.1035 146.366 96.3911C149.541 96.6787 163.794 94.3277 171.96 90.4885C171.96 90.4885 181.765 90.1865 189.938 95.5212C196.892 100.007 214.823 116.019 228.075 127.615Z" fill="#4F46E5"/>
<path d="M195.944 137.99C195.944 137.99 188.592 130.017 187.777 127.924C186.962 125.832 192.417 103.121 189.408 108.728C187.643 112 186.543 115.642 186.18 119.412C186.18 119.412 182.633 104.645 182.361 108.189C182.089 111.734 182.089 120.598 182.089 120.598C182.089 120.598 169.296 104.645 171.483 111.734C173.671 118.823 176.123 127.091 176.123 127.091L158.643 261.471L165.994 258.81L182.328 132.706L195.944 137.99Z" fill="#4F46E5"/>
<path d="M113.44 128.866C113.44 128.866 113.712 97.2322 112.89 98.742C112.068 100.252 111.259 107.01 111.259 107.01C111.259 107.01 107.176 96.6714 106.619 100.216C106.062 103.76 107.434 111.439 107.434 111.439C107.434 111.439 102.529 113.509 89.1914 115.868C75.854 118.226 78.5851 115.868 86.4669 111.734C94.3487 107.6 100.388 98.1525 100.388 93.7165C100.388 89.2806 97.6632 76.8354 89.2246 75.0884C80.7859 73.3413 63.08 91.3584 61.721 94.9028C60.3621 98.4473 72.0489 93.4146 72.0489 93.4146C72.0489 93.4146 73.6797 101.69 74.2232 104.343C74.7668 106.996 71.2336 111.432 70.9552 112.611C70.6767 113.79 77.4913 111.137 76.9212 112.021C76.3511 112.905 69.8415 118.492 71.2071 121.181C72.5726 123.87 83.7557 128.572 93.8317 130.081C100.384 130.891 107.016 130.48 113.44 128.866Z" fill="#4F46E5"/>
<path opacity="0.5" d="M113.44 128.866C113.44 128.866 113.712 97.2322 112.89 98.742C112.068 100.252 111.259 107.01 111.259 107.01C111.259 107.01 107.176 96.6714 106.619 100.216C106.062 103.76 107.434 111.439 107.434 111.439C107.434 111.439 102.529 113.509 89.1914 115.868C75.854 118.226 78.5851 115.868 86.4669 111.734C94.3487 107.6 100.388 98.1525 100.388 93.7165C100.388 89.2806 97.6632 76.8354 89.2246 75.0884C80.7859 73.3413 63.08 91.3584 61.721 94.9028C60.3621 98.4473 72.0489 93.4146 72.0489 93.4146C72.0489 93.4146 73.6797 101.69 74.2232 104.343C74.7668 106.996 71.2336 111.432 70.9552 112.611C70.6767 113.79 77.4913 111.137 76.9212 112.021C76.3511 112.905 69.8415 118.492 71.2071 121.181C72.5726 123.87 83.7557 128.572 93.8317 130.081C100.384 130.891 107.016 130.48 113.44 128.866Z" fill="white"/>
<path opacity="0.5" d="M195.944 137.99C195.944 137.99 188.592 130.017 187.777 127.924C186.962 125.832 192.417 103.121 189.408 108.728C187.643 112 186.543 115.642 186.18 119.412C186.18 119.412 182.633 104.645 182.361 108.189C182.089 111.734 182.089 120.598 182.089 120.598C182.089 120.598 169.296 104.645 171.483 111.734C173.671 118.823 176.123 127.091 176.123 127.091L158.643 261.471L165.994 258.81L182.328 132.706L195.944 137.99Z" fill="white"/>
<path d="M114.043 245.474H178.715C178.715 245.474 178.205 223.114 177.847 201.776L113.679 197.131C113.864 220.159 114.043 245.474 114.043 245.474Z" fill="#263238"/>
<path opacity="0.5" d="M228.075 127.615C229.062 125.847 229.619 124.351 229.5 123.431C228.95 119.268 209.951 107.183 203.375 101.237C196.799 95.2911 194.24 89.5539 189.673 87.1741C185.106 84.7944 164.483 79.8408 159.896 79.2656C157.468 79.0975 155.034 79.0711 152.604 79.1865C158.007 85.2257 143.191 96.1035 146.366 96.3911C149.541 96.6787 163.794 94.3277 171.96 90.4885C171.96 90.4885 181.765 90.1865 189.938 95.5212C196.892 100.007 214.823 116.019 228.075 127.615Z" fill="white"/>
</g>
<path d="M68.7411 88.7557C68.7411 88.7557 65.2741 100.647 65.0885 105.795C64.9029 110.943 71.6644 117.859 75.4761 121.842C79.2877 125.825 86.0824 127.594 95.5684 127.191C105.054 126.788 113.288 122.043 113.288 122.043C113.288 122.043 113.109 153.541 113.288 160.867C113.467 168.193 114.023 245.466 114.023 245.466H178.689C178.689 245.466 177.045 172.953 177.588 164.433C178.132 155.913 181.612 131.153 181.612 131.153C181.612 131.153 205.907 143.432 211.383 143.432C216.858 143.432 230.017 127.615 229.473 123.424C228.93 119.232 209.924 107.175 203.349 101.23C196.773 95.2838 194.214 89.5466 189.647 87.1668C185.079 84.7871 164.456 79.8335 159.869 79.2583C155.282 78.6831 130.463 80.2433 123.702 80.6387C116.94 81.0341 105.618 93.5224 102.88 95.7008C100.771 97.2996 98.5729 98.7547 96.2976 100.058C96.2976 100.058 97.398 98.6701 95.5684 98.2747C94.6683 98.0562 93.7522 97.9239 92.8307 97.8793C92.8307 97.8793 91.9159 86.376 91.1867 85.1969C90.4575 84.0178 79.6788 81.2354 75.6617 81.6021C71.6446 81.9688 68.7411 88.7557 68.7411 88.7557Z" stroke="#263238" stroke-width="1.14333" stroke-linecap="round" stroke-linejoin="round"/>
<path d="M113.679 103.616L113.314 122.043L108.568 101.833" stroke="#263238" stroke-width="1.14333" stroke-linecap="round" stroke-linejoin="round"/>
<path d="M92.8572 97.872C92.8572 97.872 85.7311 107.973 80.7793 108.966" stroke="#263238" stroke-width="1.14333" stroke-linecap="round" stroke-linejoin="round"/>
<path d="M96.3242 100.05C96.3242 100.05 93.951 105.205 91.3922 105.802" stroke="#263238" stroke-width="1.14333" stroke-linecap="round" stroke-linejoin="round"/>
<path d="M184.741 118.671L181.639 131.16L179.809 118.477" stroke="#263238" stroke-width="1.14333" stroke-linecap="round" stroke-linejoin="round"/>
<path d="M143.277 95.4923L136.88 101.237L131.398 244.481" stroke="#263238" stroke-width="1.14333" stroke-linecap="round" stroke-linejoin="round"/>
<path d="M139.777 112.431C139.777 112.685 139.707 112.934 139.577 113.146C139.447 113.358 139.261 113.522 139.044 113.62C138.828 113.717 138.589 113.743 138.359 113.693C138.129 113.643 137.917 113.521 137.751 113.341C137.585 113.161 137.472 112.932 137.427 112.682C137.381 112.432 137.404 112.174 137.494 111.938C137.584 111.703 137.736 111.502 137.931 111.361C138.126 111.219 138.356 111.144 138.59 111.144C138.904 111.146 139.205 111.282 139.427 111.523C139.65 111.764 139.775 112.09 139.777 112.431Z" fill="#263238"/>
<path d="M152.955 112.431C152.955 112.685 152.886 112.934 152.755 113.146C152.625 113.358 152.44 113.522 152.223 113.62C152.006 113.717 151.767 113.743 151.537 113.693C151.307 113.643 151.096 113.521 150.93 113.341C150.764 113.161 150.651 112.932 150.605 112.682C150.559 112.432 150.583 112.174 150.672 111.938C150.762 111.703 150.914 111.502 151.109 111.361C151.305 111.219 151.534 111.144 151.769 111.144C152.083 111.146 152.384 111.282 152.606 111.523C152.828 111.764 152.954 112.09 152.955 112.431Z" fill="#263238"/>
<path d="M139.346 137.271C139.346 137.525 139.276 137.774 139.146 137.986C139.016 138.197 138.83 138.362 138.614 138.46C138.397 138.557 138.158 138.583 137.928 138.533C137.698 138.483 137.486 138.361 137.32 138.181C137.154 138.001 137.041 137.771 136.996 137.522C136.95 137.272 136.973 137.013 137.063 136.778C137.153 136.543 137.305 136.342 137.5 136.201C137.695 136.059 137.925 135.984 138.159 135.984C138.474 135.984 138.776 136.119 138.999 136.361C139.221 136.602 139.346 136.929 139.346 137.271Z" fill="#263238"/>
<path d="M152.498 137.271C152.498 137.525 152.428 137.774 152.298 137.986C152.168 138.197 151.982 138.362 151.765 138.46C151.549 138.557 151.31 138.583 151.08 138.533C150.85 138.483 150.638 138.361 150.472 138.181C150.306 138.001 150.193 137.771 150.148 137.522C150.102 137.272 150.125 137.013 150.215 136.778C150.305 136.543 150.457 136.342 150.652 136.201C150.847 136.059 151.077 135.984 151.311 135.984C151.467 135.984 151.621 136.017 151.765 136.082C151.909 136.146 152.04 136.241 152.15 136.361C152.261 136.48 152.348 136.622 152.408 136.778C152.467 136.934 152.498 137.102 152.498 137.271Z" fill="#263238"/>
<path d="M138.889 165.432C138.889 165.687 138.819 165.936 138.689 166.147C138.558 166.359 138.373 166.524 138.156 166.621C137.939 166.719 137.701 166.744 137.471 166.694C137.24 166.645 137.029 166.522 136.863 166.342C136.697 166.162 136.584 165.933 136.538 165.683C136.493 165.434 136.516 165.175 136.606 164.94C136.696 164.705 136.848 164.504 137.043 164.362C137.238 164.221 137.467 164.145 137.702 164.145C138.017 164.145 138.319 164.281 138.541 164.522C138.764 164.764 138.889 165.091 138.889 165.432Z" fill="#263238"/>
<path d="M152.04 165.432C152.04 165.687 151.971 165.936 151.841 166.147C151.71 166.359 151.525 166.524 151.308 166.621C151.091 166.719 150.853 166.744 150.622 166.694C150.392 166.645 150.181 166.522 150.015 166.342C149.849 166.162 149.736 165.933 149.69 165.683C149.644 165.434 149.668 165.175 149.758 164.94C149.847 164.705 150 164.504 150.195 164.362C150.39 164.221 150.619 164.145 150.854 164.145C151.01 164.145 151.164 164.179 151.308 164.243C151.452 164.308 151.583 164.403 151.693 164.522C151.803 164.642 151.891 164.784 151.95 164.94C152.01 165.096 152.04 165.263 152.04 165.432Z" fill="#263238"/>
<path d="M82.6287 67.1654C82.6287 67.1654 77.8758 67.1654 76.2318 67.7549C74.5878 68.3445 68.5621 80.4373 66.9513 84.7942C65.9557 87.6341 65.5791 90.6853 65.8509 93.7092L74.621 89.1511L77.1798 101.833C77.1798 101.833 91.0608 89.9491 92.8904 86.0164C94.72 82.0837 90.5172 70.9543 90.5172 70.9543L82.6287 67.1654Z" fill="#263238" stroke="#263238" stroke-width="1.14333" stroke-linecap="round" stroke-linejoin="round"/>
<path d="M143.642 75.0883C143.642 75.0883 134.871 77.6621 133.957 82.4216C133.042 87.1811 140.533 94.7014 141.998 96.0818C143.463 97.4622 156.972 94.4929 163.005 92.9112C169.037 91.3295 177.071 87.1595 176.886 83.7948C176.7 80.4301 173.048 79.0425 171.954 76.2674C170.86 73.4922 170.124 71.9105 166.836 71.5151C163.558 71.1673 160.26 71.1 156.972 71.3138C155.686 71.5223 143.642 75.0883 143.642 75.0883Z" fill="#263238" stroke="#263238" stroke-width="1.14333" stroke-linecap="round" stroke-linejoin="round"/>
<path d="M143.277 95.4923C143.277 95.4923 142.362 93.5152 138.889 93.7093C135.415 93.9034 132.677 98.0661 132.677 98.0661C132.677 98.0661 139.439 99.655 143.277 95.4923Z" fill="#263238" stroke="#263238" stroke-width="1.14333" stroke-linecap="round" stroke-linejoin="round"/>
<path d="M143.277 95.4923C143.277 95.4923 144.735 92.523 147.659 95.6936C150.582 98.8642 152.405 104.199 152.405 104.199C152.405 104.199 148.574 105.982 144.921 101.819C141.268 97.6563 143.277 95.4923 143.277 95.4923Z" fill="#263238" stroke="#263238" stroke-width="1.14333" stroke-linecap="round" stroke-linejoin="round"/>
<path d="M171.596 78.6544C171.596 78.6544 171.782 82.4217 165.199 86.1818C160.498 88.7583 155.622 90.943 150.615 92.7171" stroke="white" stroke-width="1.14333" stroke-linecap="round" stroke-linejoin="round"/>
<path d="M160.473 83.6511C160.473 83.6511 165.378 80.2361 166.107 77.8995C166.836 75.5629 164.649 74.3047 164.649 74.3047" stroke="white" stroke-width="1.14333" stroke-linecap="round" stroke-linejoin="round"/>
<path d="M143.642 94.7014C143.642 94.7014 139.253 88.9498 139.253 84.636C139.253 80.3223 140.897 79.6824 140.897 79.6824" stroke="white" stroke-width="1.14333" stroke-linecap="round" stroke-linejoin="round"/>
<path d="M143.887 29.2693C142.278 27.196 140.903 24.9225 139.79 22.4967C138.232 18.9019 136.085 12.9777 140.181 9.38296C144.278 5.78818 160.068 3.45876 167.691 4.51562C175.315 5.57249 181.738 14.0346 187.784 25.883C193.829 37.7314 195.785 46.8334 194.413 50.8523C193.041 54.8713 187.585 59.3144 181.155 59.1059C174.725 58.8974 171.013 51.485 167.307 47.6817C163.601 43.8784 152.06 36.0418 150.529 34.3451C148.725 32.6139 146.836 30.9915 144.868 29.485L143.887 29.2693Z" fill="white"/>
<mask id="mask1_195_413" style="mask-type:luminance" maskUnits="userSpaceOnUse" x="137" y="4" width="58" height="56">
<path d="M143.887 29.2693C142.278 27.196 140.903 24.9225 139.79 22.4967C138.232 18.9019 136.085 12.9777 140.181 9.38296C144.278 5.78818 160.068 3.45876 167.691 4.51562C175.315 5.57249 181.738 14.0346 187.784 25.883C193.829 37.7314 195.785 46.8334 194.413 50.8523C193.041 54.8713 187.585 59.3144 181.155 59.1059C174.725 58.8974 171.013 51.485 167.307 47.6817C163.601 43.8784 152.06 36.0418 150.529 34.3451C148.725 32.6139 146.836 30.9915 144.868 29.485L143.887 29.2693Z" fill="white"/>
</mask>
<g mask="url(#mask1_195_413)">
<path d="M172.504 6.24109C175.487 10.181 182.507 20.1457 183.15 27.5653C183.965 37.0124 167.353 32.2889 167.353 32.2889C167.353 32.2889 178.245 25.1999 174.977 26.0843C171.709 26.9686 169.011 24.9052 164.085 24.9052C159.16 24.9052 152.922 17.8163 152.922 20.1816C152.922 22.547 153.466 23.1365 154.831 25.2143C156.197 27.2921 153.466 25.2143 160.002 35.2797C161.991 38.364 163.528 41.9804 165.033 45.6542C165.935 46.4163 166.717 47.0922 167.3 47.7176C171.006 51.5209 174.711 58.9262 181.148 59.1419C187.585 59.3575 193.08 54.9072 194.406 50.8882C195.732 46.8693 193.816 37.7673 187.777 25.9189C183.051 16.6156 178.086 9.44044 172.504 6.24109Z" fill="#4F46E5"/>
<path opacity="0.5" d="M172.504 6.24109C175.487 10.181 182.507 20.1457 183.15 27.5653C183.965 37.0124 167.353 32.2889 167.353 32.2889C167.353 32.2889 178.245 25.1999 174.977 26.0843C171.709 26.9686 169.011 24.9052 164.085 24.9052C159.16 24.9052 152.922 17.8163 152.922 20.1816C152.922 22.547 153.466 23.1365 154.831 25.2143C156.197 27.2921 153.466 25.2143 160.002 35.2797C161.991 38.364 163.528 41.9804 165.033 45.6542C165.935 46.4163 166.717 47.0922 167.3 47.7176C171.006 51.5209 174.711 58.9262 181.148 59.1419C187.585 59.3575 193.08 54.9072 194.406 50.8882C195.732 46.8693 193.816 37.7673 187.777 25.9189C183.051 16.6156 178.086 9.44044 172.504 6.24109Z" fill="white"/>
</g>
<path d="M143.887 29.2693C142.278 27.196 140.903 24.9225 139.79 22.4967C138.232 18.9019 136.085 12.9777 140.181 9.38296C144.278 5.78818 160.068 3.45876 167.691 4.51562C175.315 5.57249 181.738 14.0346 187.784 25.883C193.829 37.7314 195.785 46.8334 194.413 50.8523C193.041 54.8713 187.585 59.3144 181.155 59.1059C174.725 58.8974 171.013 51.485 167.307 47.6817C163.601 43.8784 152.06 36.0418 150.529 34.3451C148.725 32.6139 146.836 30.9915 144.868 29.485L143.887 29.2693Z" stroke="#263238" stroke-width="1.14333" stroke-linecap="round" stroke-linejoin="round"/>
<path d="M149.72 21.9216C149.72 21.9216 147.785 20.7569 144.556 16.3209" stroke="#263238" stroke-width="1.14333" stroke-linecap="round" stroke-linejoin="round"/>
<path d="M151.483 14.9477C151.387 14.3229 151.37 13.6868 151.43 13.0568" stroke="#263238" stroke-width="1.14333" stroke-linecap="round" stroke-linejoin="round"/>
<path d="M154.659 22.8562C153.566 21.0455 152.676 19.1002 152.007 17.0614" stroke="#263238" stroke-width="1.14333" stroke-linecap="round" stroke-linejoin="round"/>
<path d="M170.37 32.1954C170.37 32.1954 175.752 33.3601 180.485 32.4327" stroke="#263238" stroke-width="1.14333" stroke-linecap="round" stroke-linejoin="round"/>
<path d="M186.949 43.1379C187.439 43.1379 187.943 43.1379 188.447 43.1379" stroke="#263238" stroke-width="1.14333" stroke-linecap="round" stroke-linejoin="round"/>
<path d="M177.9 41.7647C180.096 42.3614 182.333 42.7653 184.589 42.9725" stroke="#263238" stroke-width="1.14333" stroke-linecap="round" stroke-linejoin="round"/>
<path d="M176.859 46.1935C176.859 46.1935 182.209 52.5059 186.08 53.6706" stroke="#263238" stroke-width="1.14333" stroke-linecap="round" stroke-linejoin="round"/>
<path d="M172.763 49.5582C172.763 48.9256 169.833 41.5203 164.761 36.2288C159.69 30.9373 149.932 29.6719 146.618 29.8804C143.304 30.0889 141.739 31.7857 141.739 31.7857C141.739 31.7857 138.232 45.755 136.476 50.6223C135.079 54.8138 135.028 59.3939 136.33 63.621C137.544 67.3809 139.164 70.9719 141.156 74.3191C144.086 79.3949 144.086 93.3642 144.086 93.3642C144.086 93.3642 158.716 86.1747 160.472 83.6296C162.229 81.0845 161.248 72.2053 162.03 67.9707C162.191 67.1074 162.426 66.2625 162.733 65.4472C163.68 64.3267 164.434 63.0313 164.96 61.6223C164.96 61.6223 172.763 50.2197 172.763 49.5582Z" fill="white"/>
<mask id="mask2_195_413" style="mask-type:luminance" maskUnits="userSpaceOnUse" x="135" y="29" width="38" height="65">
<path d="M172.763 49.5582C172.763 48.9256 169.833 41.5203 164.761 36.2288C159.69 30.9373 149.932 29.6719 146.618 29.8804C143.304 30.0889 141.739 31.7857 141.739 31.7857C141.739 31.7857 138.232 45.755 136.476 50.6223C135.079 54.8138 135.028 59.3939 136.33 63.621C137.544 67.3809 139.164 70.9719 141.156 74.3191C144.086 79.3949 144.086 93.3642 144.086 93.3642C144.086 93.3642 158.716 86.1747 160.472 83.6296C162.229 81.0845 161.248 72.2053 162.03 67.9707C162.191 67.1074 162.426 66.2625 162.733 65.4472C163.68 64.3267 164.434 63.0313 164.96 61.6223C164.96 61.6223 172.763 50.2197 172.763 49.5582Z" fill="white"/>
</mask>
<g mask="url(#mask2_195_413)">
<path d="M168.387 40.8373L164.085 40.5569C162.878 46.5627 161.328 52.4815 159.445 58.2792C156.721 66.2524 152.909 70.976 149.097 72.457C145.286 73.9381 140.93 71.8675 142.561 74.2256C143.529 75.6276 149.402 81.6165 155.945 86.9871C158.139 85.6642 159.922 84.4348 160.459 83.6511C162.216 81.1132 161.235 72.2269 162.017 67.9923C162.177 67.129 162.413 66.2841 162.72 65.4688C163.667 64.3483 164.421 63.0529 164.947 61.6439C164.947 61.6439 172.749 50.2197 172.749 49.5798C172.763 49.1197 171.198 45.0576 168.387 40.8373Z" fill="#4F46E5"/>
<path opacity="0.5" d="M168.387 40.8373L164.085 40.5569C162.878 46.5627 161.328 52.4815 159.445 58.2792C156.721 66.2524 152.909 70.976 149.097 72.457C145.286 73.9381 140.93 71.8675 142.561 74.2256C143.529 75.6276 149.402 81.6165 155.945 86.9871C158.139 85.6642 159.922 84.4348 160.459 83.6511C162.216 81.1132 161.235 72.2269 162.017 67.9923C162.177 67.129 162.413 66.2841 162.72 65.4688C163.667 64.3483 164.421 63.0529 164.947 61.6439C164.947 61.6439 172.749 50.2197 172.749 49.5798C172.763 49.1197 171.198 45.0576 168.387 40.8373Z" fill="white"/>
</g>
<path d="M172.763 49.5582C172.763 48.9256 169.833 41.5203 164.761 36.2288C159.69 30.9373 149.932 29.6719 146.618 29.8804C143.304 30.0889 141.739 31.7857 141.739 31.7857C141.739 31.7857 138.232 45.755 136.476 50.6223C135.079 54.8138 135.028 59.3939 136.33 63.621C137.544 67.3809 139.164 70.9719 141.156 74.3191C144.086 79.3949 144.086 93.3642 144.086 93.3642C144.086 93.3642 158.716 86.1747 160.472 83.6296C162.229 81.0845 161.248 72.2053 162.03 67.9707C162.191 67.1074 162.426 66.2625 162.733 65.4472C163.68 64.3267 164.434 63.0313 164.96 61.6223C164.96 61.6223 172.763 50.2197 172.763 49.5582Z" stroke="#263238" stroke-width="1.14333" stroke-linecap="round" stroke-linejoin="round"/>
<path d="M147.984 44.7196C147.984 44.7196 147.4 47.2575 145.451 48.0987C143.502 48.9399 140.964 48.7386 141.739 50.2196C142.515 51.7007 145.451 52.5418 145.451 52.5418" stroke="#263238" stroke-width="1.14333" stroke-linecap="round" stroke-linejoin="round"/>
<path d="M142.72 57.8334C142.72 57.8334 146.035 59.3144 147.984 58.2576" stroke="#263238" stroke-width="1.14333" stroke-linecap="round" stroke-linejoin="round"/>
<path d="M154.619 46.8334C154.619 46.8334 154.228 50.4281 158.325 49.7955" stroke="#263238" stroke-width="1.14333" stroke-linecap="round" stroke-linejoin="round"/>
<path d="M141.547 43.4471C141.547 43.4471 143.496 46.8334 146.227 44.7196" stroke="#263238" stroke-width="1.14333" stroke-linecap="round" stroke-linejoin="round"/>
<path d="M155.594 41.966C155.594 41.966 159.107 40.6935 160.665 45.3523" stroke="#263238" stroke-width="1.14333" stroke-linecap="round" stroke-linejoin="round"/>
<path d="M147.984 40.2765C147.984 40.2765 145.644 36.466 142.329 39.2124" stroke="#263238" stroke-width="1.14333" stroke-linecap="round" stroke-linejoin="round"/>
<path d="M148.182 56.1439C148.182 56.1439 148.375 59.3145 149.932 59.9543" stroke="#263238" stroke-width="1.14333" stroke-linecap="round" stroke-linejoin="round"/>
<path d="M165.935 60.1628C165.935 60.1628 160.473 67.3524 156.767 68.625" stroke="#263238" stroke-width="1.14333" stroke-linecap="round" stroke-linejoin="round"/>
<path d="M165.431 44.0798C165.431 44.0798 162.892 47.3654 163.177 50.1406C163.462 52.9157 167.406 55.6909 168.533 55.6909C169.66 55.6909 172.763 50.6582 172.763 50.6582C172.763 50.6582 168.281 45.3451 165.431 44.0798Z" fill="#263238" stroke="#263238" stroke-width="1.14333" stroke-linecap="round" stroke-linejoin="round"/>
<path d="M148.023 34.6686C148.023 34.6686 145.829 37.0484 140.533 37.0484C137.534 37.0738 134.539 36.8091 131.584 36.2575C131.584 36.2575 143.456 33.0869 148.023 34.6686Z" fill="#263238" stroke="#263238" stroke-width="1.14333" stroke-linecap="round" stroke-linejoin="round"/>
<path d="M110.987 72.5145C111.651 75.1953 113.217 77.5088 115.377 78.9977C117.537 80.4865 120.133 81.0424 122.653 80.5555C125.173 80.0686 127.432 78.5743 128.985 76.3679C130.538 74.1616 131.271 71.4037 131.04 68.6393L110.987 72.5145Z" fill="white"/>
<mask id="mask3_195_413" style="mask-type:luminance" maskUnits="userSpaceOnUse" x="110" y="68" width="22" height="13">
<path d="M110.987 72.5145C111.651 75.1953 113.217 77.5088 115.377 78.9977C117.537 80.4865 120.133 81.0424 122.653 80.5555C125.173 80.0686 127.432 78.5743 128.985 76.3679C130.538 74.1616 131.271 71.4037 131.04 68.6393L110.987 72.5145Z" fill="white"/>
</mask>
<g mask="url(#mask3_195_413)">
<path opacity="0.42" d="M110.987 72.5145C111.651 75.1953 113.217 77.5088 115.377 78.9977C117.537 80.4865 120.133 81.0424 122.653 80.5555C125.173 80.0686 127.432 78.5743 128.985 76.3679C130.538 74.1616 131.271 71.4037 131.04 68.6393L110.987 72.5145Z" fill="black"/>
</g>
<path d="M110.987 72.5145C111.651 75.1953 113.217 77.5088 115.377 78.9977C117.537 80.4865 120.133 81.0424 122.653 80.5555C125.173 80.0686 127.432 78.5743 128.985 76.3679C130.538 74.1616 131.271 71.4037 131.04 68.6393L110.987 72.5145Z" stroke="#263238" stroke-width="1.14333" stroke-linecap="round" stroke-linejoin="round"/>
<path d="M98.5184 43.8066C99.1683 42.4568 99.5414 40.9705 99.6121 39.4497C99.6121 37.2928 98.883 33.698 97.7892 34.1007C96.6954 34.5033 96.6954 37.4654 96.8744 38.4575C96.9527 39.3203 96.8922 40.1912 96.6954 41.0314C96.6954 41.0314 95.7806 42.8144 96.5098 44.202C97.239 45.5896 98.5184 43.8066 98.5184 43.8066Z" fill="white" stroke="#263238" stroke-width="1.14333" stroke-linecap="round" stroke-linejoin="round"/>
<path d="M110.987 72.5145L91.1934 26.4438C91.076 26.1718 90.9102 25.9277 90.7055 25.7254C90.5009 25.5231 90.2614 25.3667 90.0008 25.2652C89.7402 25.1636 89.4637 25.1189 89.1872 25.1337C88.9106 25.1484 88.6395 25.2222 88.3893 25.351C88.1369 25.48 87.9108 25.6625 87.7242 25.8876C87.5377 26.1127 87.3945 26.376 87.3031 26.662C87.2117 26.948 87.174 27.2509 87.192 27.553C87.2101 27.855 87.2836 28.1501 87.4082 28.4209L88.2766 30.3118" stroke="#263238" stroke-width="1.14333" stroke-linecap="round" stroke-linejoin="round"/>
<path d="M91.0276 36.4516C91.0276 36.4516 91.0276 38.8314 91.9424 39.4281C92.8572 40.0248 97.6036 43.0229 97.7892 41.2111C97.9748 39.3993 94.4747 37.0484 93.4074 36.4516C92.3402 35.8549 91.9424 36.0562 91.0276 36.4516Z" stroke="#263238" stroke-width="1.14333" stroke-linecap="round" stroke-linejoin="round"/>
<path d="M91.9424 39.4281C91.9424 39.4281 89.019 45.7621 89.019 48.5373V59.0412C89.019 59.0412 77.6968 71.9177 77.1466 75.2824C76.5964 78.6471 75.1579 86.7857 77.1466 86.7857C79.1353 86.7857 88.4755 77.0726 89.2047 75.0955C89.9338 73.1184 94.3156 60.0406 94.3156 60.0406C94.6826 59.3987 95.1114 58.801 95.595 58.2576C96.3241 57.4595 96.5098 52.3118 96.5098 52.3118C96.5098 52.3118 98.4984 52.1105 98.4984 50.9242V43.8065C98.5183 42.1961 91.9424 39.4281 91.9424 39.4281Z" fill="white"/>
<mask id="mask4_195_413" style="mask-type:luminance" maskUnits="userSpaceOnUse" x="76" y="39" width="23" height="48">
<path d="M91.9424 39.4281C91.9424 39.4281 89.019 45.7621 89.019 48.5373V59.0412C89.019 59.0412 77.6968 71.9177 77.1466 75.2824C76.5964 78.6471 75.1579 86.7857 77.1466 86.7857C79.1353 86.7857 88.4755 77.0726 89.2047 75.0955C89.9338 73.1184 94.3156 60.0406 94.3156 60.0406C94.6826 59.3987 95.1114 58.801 95.595 58.2576C96.3241 57.4595 96.5098 52.3118 96.5098 52.3118C96.5098 52.3118 98.4984 52.1105 98.4984 50.9242V43.8065C98.5183 42.1961 91.9424 39.4281 91.9424 39.4281Z" fill="white"/>
</mask>
<g mask="url(#mask4_195_413)">
<path d="M89.2047 75.0882C89.9338 73.1039 94.3156 60.0333 94.3156 60.0333C94.6826 59.3915 95.1114 58.7938 95.595 58.2503C96.3241 57.4522 96.5097 52.3045 96.5097 52.3045C96.5097 52.3045 98.4984 52.1032 98.4984 50.9169V43.8065C98.4984 43.4614 98.1869 43.0875 97.703 42.6561L96.3772 49.1267L91.1204 49.6947C91.9472 51.0132 92.5676 52.4707 92.9566 54.0084C93.4869 56.2875 92.6981 60.2777 91.3856 63.9804C90.146 67.4745 77.6902 83.8882 76.2782 85.7503C76.4307 86.419 76.7024 86.8288 77.1532 86.8288C79.1552 86.7784 88.4755 77.0653 89.2047 75.0882Z" fill="#4F46E5"/>
<path opacity="0.5" d="M89.2047 75.0882C89.9338 73.1039 94.3156 60.0333 94.3156 60.0333C94.6826 59.3915 95.1114 58.7938 95.595 58.2503C96.3241 57.4522 96.5097 52.3045 96.5097 52.3045C96.5097 52.3045 98.4984 52.1032 98.4984 50.9169V43.8065C98.4984 43.4614 98.1869 43.0875 97.703 42.6561L96.3772 49.1267L91.1204 49.6947C91.9472 51.0132 92.5676 52.4707 92.9566 54.0084C93.4869 56.2875 92.6981 60.2777 91.3856 63.9804C90.146 67.4745 77.6902 83.8882 76.2782 85.7503C76.4307 86.419 76.7024 86.8288 77.1532 86.8288C79.1552 86.7784 88.4755 77.0653 89.2047 75.0882Z" fill="white"/>
</g>
<path d="M91.9424 39.4281C91.9424 39.4281 89.019 45.7621 89.019 48.5373V59.0412C89.019 59.0412 77.6968 71.9177 77.1466 75.2824C76.5964 78.6471 75.1579 86.7857 77.1466 86.7857C79.1353 86.7857 88.4755 77.0726 89.2047 75.0955C89.9338 73.1184 94.3156 60.0406 94.3156 60.0406C94.6826 59.3987 95.1114 58.801 95.595 58.2576C96.3241 57.4595 96.5098 52.3118 96.5098 52.3118C96.5098 52.3118 98.4984 52.1105 98.4984 50.9242V43.8065C98.5183 42.1961 91.9424 39.4281 91.9424 39.4281Z" stroke="#263238" stroke-width="1.14333" stroke-linecap="round" stroke-linejoin="round"/>
<path d="M96.5098 52.3046L95.9596 50.7157L94.1366 50.917" stroke="#263238" stroke-width="1.14333" stroke-linecap="round" stroke-linejoin="round"/>
<path d="M91.5778 47.351L97.7892 47.5451" stroke="#263238" stroke-width="1.14333" stroke-linecap="round" stroke-linejoin="round"/>
<path d="M91.9424 43.5837L97.9681 45.1726" stroke="#263238" stroke-width="1.14333" stroke-linecap="round" stroke-linejoin="round"/>
<path d="M216.341 124.222C216.341 124.222 200.432 127.191 202.096 130.958L202.646 133.733C202.646 133.733 191.138 149.551 191.682 150.176C192.225 150.802 212.894 164.045 213.604 164.045C214.313 164.045 227.306 138.881 230.043 133.928C232.781 128.974 233.152 124.423 229.679 122.043C226.205 119.664 222.387 117.485 222.387 117.485" fill="white"/>
<mask id="mask5_195_413" style="mask-type:luminance" maskUnits="userSpaceOnUse" x="191" y="117" width="42" height="48">
<path d="M216.341 124.222C216.341 124.222 200.432 127.191 202.096 130.958L202.646 133.733C202.646 133.733 191.138 149.551 191.682 150.176C192.225 150.802 212.894 164.045 213.604 164.045C214.313 164.045 227.306 138.881 230.043 133.928C232.781 128.974 233.152 124.423 229.679 122.043C226.205 119.664 222.387 117.485 222.387 117.485" fill="white"/>
</mask>
<g mask="url(#mask5_195_413)">
<path d="M229.679 122.043C226.205 119.663 222.387 117.485 222.387 117.485L220.166 119.965C222.42 122.05 226.265 125.897 226.457 127.975C226.729 130.93 222.645 136.839 222.102 138.04C221.558 139.241 216.653 129.772 212.026 129.772C207.399 129.772 212.225 131.641 214.677 134.546C217.13 137.45 217.442 142.174 215.533 145.129C213.743 147.904 194.453 146.509 197.933 154.382C204.243 158.473 213.106 164.066 213.584 164.066C214.313 164.066 227.286 138.903 230.023 133.949C232.761 128.996 233.152 124.423 229.679 122.043Z" fill="#4F46E5"/>
<path opacity="0.5" d="M229.679 122.043C226.205 119.663 222.387 117.485 222.387 117.485L220.166 119.965C222.42 122.05 226.265 125.897 226.457 127.975C226.729 130.93 222.645 136.839 222.102 138.04C221.558 139.241 216.653 129.772 212.026 129.772C207.399 129.772 212.225 131.641 214.677 134.546C217.13 137.45 217.442 142.174 215.533 145.129C213.743 147.904 194.453 146.509 197.933 154.382C204.243 158.473 213.106 164.066 213.584 164.066C214.313 164.066 227.286 138.903 230.023 133.949C232.761 128.996 233.152 124.423 229.679 122.043Z" fill="white"/>
</g>
<path d="M216.341 124.222C216.341 124.222 200.432 127.191 202.096 130.958L202.646 133.733C202.646 133.733 191.138 149.551 191.682 150.176C192.225 150.802 212.894 164.045 213.604 164.045C214.313 164.045 227.306 138.881 230.043 133.928C232.781 128.974 233.152 124.423 229.679 122.043C226.205 119.664 222.387 117.485 222.387 117.485" stroke="#263238" stroke-width="1.14333" stroke-linecap="round" stroke-linejoin="round"/>
<path d="M205.019 132.54C205.019 132.54 210.68 130.167 214.697 134.524C218.714 138.881 219.45 140.664 219.45 140.664C219.309 138.886 218.831 137.159 218.045 135.592C217.259 134.024 216.182 132.65 214.883 131.555" stroke="#263238" stroke-width="1.14333" stroke-linecap="round" stroke-linejoin="round"/>
<path d="M184.012 159.688C184.012 159.688 182.182 162.262 180.359 163.283C177.621 164.964 175.3 167.343 173.598 170.213C171.404 173.808 168.666 176.95 170.283 178.338C171.229 179.161 172.387 179.645 173.598 179.725C173.598 179.725 174.692 182.5 176.157 182.694C176.884 182.806 177.616 182.873 178.351 182.896C178.351 182.896 179.624 184.283 180.339 184.283H182.202C182.202 184.283 182.931 185.276 184.575 184.283C186.219 183.291 187.89 177.345 188.414 175.368C188.937 173.391 188.964 169.221 188.964 169.221L191.523 165.26L185.676 158.919L184.012 159.688Z" fill="white"/>
<mask id="mask6_195_413" style="mask-type:luminance" maskUnits="userSpaceOnUse" x="169" y="158" width="23" height="27">
<path d="M184.012 159.688C184.012 159.688 182.182 162.262 180.359 163.283C177.621 164.964 175.3 167.343 173.598 170.213C171.404 173.808 168.666 176.95 170.283 178.338C171.229 179.161 172.387 179.645 173.598 179.725C173.598 179.725 174.692 182.5 176.157 182.694C176.884 182.806 177.616 182.873 178.351 182.896C178.351 182.896 179.624 184.283 180.339 184.283H182.202C182.202 184.283 182.931 185.276 184.575 184.283C186.219 183.291 187.89 177.345 188.414 175.368C188.937 173.391 188.964 169.221 188.964 169.221L191.523 165.26L185.676 158.919L184.012 159.688Z" fill="white"/>
</mask>
<g mask="url(#mask6_195_413)">
<path d="M184.012 159.688C183.565 160.296 183.085 160.875 182.573 161.421L185.185 167.956C185.185 167.956 183.197 178.453 181.771 181.35C181.195 182.536 179.995 182.989 178.775 183.284C179.208 183.763 179.757 184.1 180.359 184.255H182.202C182.202 184.255 182.931 185.247 184.575 184.255C186.219 183.262 187.89 177.317 188.414 175.34C188.937 173.362 188.964 169.193 188.964 169.193L191.523 165.231L185.676 158.89L184.012 159.688Z" fill="#4F46E5"/>
<path opacity="0.5" d="M184.012 159.688C183.565 160.296 183.085 160.875 182.573 161.421L185.185 167.956C185.185 167.956 183.197 178.453 181.771 181.35C181.195 182.536 179.995 182.989 178.775 183.284C179.208 183.763 179.757 184.1 180.359 184.255H182.202C182.202 184.255 182.931 185.247 184.575 184.255C186.219 183.262 187.89 177.317 188.414 175.34C188.937 173.362 188.964 169.193 188.964 169.193L191.523 165.231L185.676 158.89L184.012 159.688Z" fill="white"/>
</g>
<path d="M184.012 159.688C184.012 159.688 182.182 162.262 180.359 163.283C177.621 164.964 175.3 167.343 173.598 170.213C171.404 173.808 168.666 176.95 170.283 178.338C171.229 179.161 172.387 179.645 173.598 179.725C173.598 179.725 174.692 182.5 176.157 182.694C176.884 182.806 177.616 182.873 178.351 182.896C178.351 182.896 179.624 184.283 180.339 184.283H182.202C182.202 184.283 182.931 185.276 184.575 184.283C186.219 183.291 187.89 177.345 188.414 175.368C188.937 173.391 188.964 169.221 188.964 169.221L191.523 165.26L185.676 158.919L184.012 159.688Z" stroke="#263238" stroke-width="1.14333" stroke-linecap="round" stroke-linejoin="round"/>
<path d="M191.138 147.796C191.138 147.796 212.689 160.083 213.968 160.874C215.248 161.665 215.798 164.045 215.433 166.626C215.069 169.207 217.621 178.913 214.883 178.913C212.145 178.913 200.266 174.951 193.326 170.789C186.385 166.626 182.912 160.486 182.912 159.695C182.912 158.904 191.138 147.796 191.138 147.796Z" fill="#263238" stroke="#263238" stroke-width="1.14333" stroke-linecap="round" stroke-linejoin="round"/>
<path d="M171.596 51.9092L176.866 46.1576C179.683 43.102 174.738 37.1706 172.948 34.9778C168.75 29.8912 163.435 26.0381 157.496 23.7765C153.897 22.3817 146.074 19.7359 144.092 25.0059L140.579 34.3092C140.579 34.3092 150.138 33.468 158.331 38.1196C166.525 42.7713 171.596 51.9092 171.596 51.9092Z" fill="white"/>
<mask id="mask7_195_413" style="mask-type:luminance" maskUnits="userSpaceOnUse" x="140" y="21" width="38" height="31">
<path d="M171.596 51.9092L176.866 46.1576C179.683 43.102 174.738 37.1706 172.948 34.9778C168.75 29.8912 163.435 26.0381 157.496 23.7765C153.897 22.3817 146.074 19.7359 144.092 25.0059L140.579 34.3092C140.579 34.3092 150.138 33.468 158.331 38.1196C166.525 42.7713 171.596 51.9092 171.596 51.9092Z" fill="white"/>
</mask>
<g mask="url(#mask7_195_413)">
<path d="M157.489 23.8124C154.434 22.6261 148.322 20.5555 145.339 23.1941C147.745 23.1222 151.543 23.8627 157.271 26.9758C169.256 33.4464 169.528 35.5386 168.706 38.7882C168.368 40.1399 166.81 41.8941 165.1 43.483C167.578 45.9895 169.76 48.8198 171.596 51.9092L176.866 46.1575C179.683 43.102 174.738 37.1706 172.948 34.9778C168.745 29.9033 163.427 26.0627 157.489 23.8124Z" fill="#4F46E5"/>
<path opacity="0.5" d="M157.489 23.8124C154.434 22.6261 148.322 20.5555 145.339 23.1941C147.745 23.1222 151.543 23.8627 157.271 26.9758C169.256 33.4464 169.528 35.5386 168.706 38.7882C168.368 40.1399 166.81 41.8941 165.1 43.483C167.578 45.9895 169.76 48.8198 171.596 51.9092L176.866 46.1575C179.683 43.102 174.738 37.1706 172.948 34.9778C168.745 29.9033 163.427 26.0627 157.489 23.8124Z" fill="white"/>
</g>
<path d="M171.596 51.9092L176.866 46.1576C179.683 43.102 174.738 37.1706 172.948 34.9778C168.75 29.8912 163.435 26.0381 157.496 23.7765C153.897 22.3817 146.074 19.7359 144.092 25.0059L140.579 34.3092C140.579 34.3092 150.138 33.468 158.331 38.1196C166.525 42.7713 171.596 51.9092 171.596 51.9092Z" stroke="#263238" stroke-width="1.14333" stroke-linecap="round" stroke-linejoin="round"/>
<path d="M165.935 55.087C165.935 55.087 171.98 49.7954 173.737 52.966C175.494 56.1366 171.397 60.587 168.275 60.587C165.153 60.587 163.595 59.3144 163.595 59.3144" fill="white"/>
<mask id="mask8_195_413" style="mask-type:luminance" maskUnits="userSpaceOnUse" x="163" y="51" width="12" height="10">
<path d="M165.935 55.087C165.935 55.087 171.98 49.7954 173.737 52.966C175.494 56.1366 171.397 60.587 168.275 60.587C165.153 60.587 163.595 59.3144 163.595 59.3144" fill="white"/>
</mask>
<g mask="url(#mask8_195_413)">
<path d="M165.935 55.087C165.935 55.087 171.98 49.7954 173.737 52.966C175.494 56.1366 171.397 60.587 168.275 60.587C165.153 60.587 163.595 59.3144 163.595 59.3144" fill="#4F46E5"/>
<path opacity="0.5" d="M165.935 55.087C165.935 55.087 171.98 49.7954 173.737 52.966C175.494 56.1366 171.397 60.587 168.275 60.587C165.153 60.587 163.595 59.3144 163.595 59.3144" fill="white"/>
</g>
<path d="M165.935 55.087C165.935 55.087 171.98 49.7954 173.737 52.966C175.494 56.1366 171.397 60.587 168.275 60.587C165.153 60.587 163.595 59.3144 163.595 59.3144" stroke="#263238" stroke-width="1.14333" stroke-linecap="round" stroke-linejoin="round"/>
<path d="M22.7163 245.474H236.586" stroke="#263238" stroke-width="1.14333" stroke-linecap="round" stroke-linejoin="round"/>
<path d="M128.296 175.153H63.7362V251.635C63.7362 256.237 78.247 259.968 96.1518 259.968C114.057 259.968 128.567 256.237 128.567 251.635L128.296 175.153Z" fill="white"/>
<mask id="mask9_195_413" style="mask-type:luminance" maskUnits="userSpaceOnUse" x="63" y="175" width="66" height="85">
<path d="M128.296 175.153H63.7362V251.635C63.7362 256.237 78.247 259.968 96.1518 259.968C114.057 259.968 128.567 256.237 128.567 251.635L128.296 175.153Z" fill="white"/>
</mask>
<g mask="url(#mask9_195_413)">
<path opacity="0.42" d="M128.296 175.153H63.7362V251.635C63.7362 256.237 78.247 259.968 96.1518 259.968C114.057 259.968 128.567 256.237 128.567 251.635L128.296 175.153Z" fill="black"/>
<path d="M79.0889 175.153V258.717C84.0225 259.471 88.9955 259.881 93.9775 259.946V175.153H79.0889Z" fill="#263238"/>
<path d="M99.5657 175.153V259.918C101.15 259.918 102.708 259.81 104.206 259.709V175.153H99.5657Z" fill="#263238"/>
<path d="M106.546 175.153V259.529C108.159 259.386 109.706 259.213 111.186 259.012V175.153H106.546Z" fill="white"/>
</g>
<path d="M128.296 175.153H63.7362V251.635C63.7362 256.237 78.247 259.968 96.1518 259.968C114.057 259.968 128.567 256.237 128.567 251.635L128.296 175.153Z" stroke="#263238" stroke-width="1.14333" stroke-linecap="round" stroke-linejoin="round"/>
<path d="M96.1518 162.938C87.8126 162.938 79.301 163.527 71.1606 165.627C66.6132 166.806 58.327 169.293 60.256 176.411C61.1178 179.589 64.5052 180.811 67.0905 181.817C70.2882 182.933 73.575 183.722 76.9079 184.176C83.2709 185.209 89.6981 185.707 96.1319 185.664C104.478 185.664 112.996 185.074 121.136 182.968C124.451 182.119 128.554 181.199 130.874 178.273C131.383 177.656 131.771 176.934 132.014 176.15C132.257 175.366 132.35 174.536 132.288 173.711C132.226 172.887 132.01 172.084 131.653 171.353C131.296 170.622 130.805 169.977 130.211 169.459C127.467 167.201 123.655 166.252 120.367 165.454C115.116 164.24 109.782 163.489 104.418 163.211C101.674 163.029 98.9183 162.938 96.1518 162.938Z" fill="white"/>
<mask id="mask10_195_413" style="mask-type:luminance" maskUnits="userSpaceOnUse" x="59" y="162" width="74" height="24">
<path d="M96.1518 162.938C87.8126 162.938 79.301 163.527 71.1606 165.627C66.6132 166.806 58.327 169.293 60.256 176.411C61.1178 179.589 64.5052 180.811 67.0905 181.817C70.2882 182.933 73.575 183.722 76.9079 184.176C83.2709 185.209 89.6981 185.707 96.1319 185.664C104.478 185.664 112.996 185.074 121.136 182.968C124.451 182.119 128.554 181.199 130.874 178.273C131.383 177.656 131.771 176.934 132.014 176.15C132.257 175.366 132.35 174.536 132.288 173.711C132.226 172.887 132.01 172.084 131.653 171.353C131.296 170.622 130.805 169.977 130.211 169.459C127.467 167.201 123.655 166.252 120.367 165.454C115.116 164.24 109.782 163.489 104.418 163.211C101.674 163.029 98.9183 162.938 96.1518 162.938Z" fill="white"/>
</mask>
<g mask="url(#mask10_195_413)">
<path opacity="0.42" d="M96.1518 162.938C87.8126 162.938 79.301 163.527 71.1606 165.627C66.6132 166.806 58.327 169.293 60.256 176.411C61.1178 179.589 64.5052 180.811 67.0905 181.817C70.2882 182.933 73.575 183.722 76.9079 184.176C83.2709 185.209 89.6981 185.707 96.1319 185.664C104.478 185.664 112.996 185.074 121.136 182.968C124.451 182.119 128.554 181.199 130.874 178.273C131.383 177.656 131.771 176.934 132.014 176.15C132.257 175.366 132.35 174.536 132.288 173.711C132.226 172.887 132.01 172.084 131.653 171.353C131.296 170.622 130.805 169.977 130.211 169.459C127.467 167.201 123.655 166.252 120.367 165.454C115.116 164.24 109.782 163.489 104.418 163.211C101.674 163.029 98.9183 162.938 96.1518 162.938Z" fill="black"/>
</g>
<path d="M96.1518 162.938C87.8126 162.938 79.301 163.527 71.1606 165.627C66.6132 166.806 58.327 169.293 60.256 176.411C61.1178 179.589 64.5052 180.811 67.0905 181.817C70.2882 182.933 73.575 183.722 76.9079 184.176C83.2709 185.209 89.6981 185.707 96.1319 185.664C104.478 185.664 112.996 185.074 121.136 182.968C124.451 182.119 128.554 181.199 130.874 178.273C131.383 177.656 131.771 176.934 132.014 176.15C132.257 175.366 132.35 174.536 132.288 173.711C132.226 172.887 132.01 172.084 131.653 171.353C131.296 170.622 130.805 169.977 130.211 169.459C127.467 167.201 123.655 166.252 120.367 165.454C115.116 164.24 109.782 163.489 104.418 163.211C101.674 163.029 98.9183 162.938 96.1518 162.938Z" stroke="#263238" stroke-width="1.14333" stroke-linecap="round" stroke-linejoin="round"/>
<path d="M96.1517 179.948C114.036 179.948 128.534 176.604 128.534 172.478C128.534 168.353 114.036 165.008 96.1517 165.008C78.2674 165.008 63.7693 168.353 63.7693 172.478C63.7693 176.604 78.2674 179.948 96.1517 179.948Z" fill="white"/>
<mask id="mask11_195_413" style="mask-type:luminance" maskUnits="userSpaceOnUse" x="63" y="165" width="66" height="15">
<path d="M96.1517 179.948C114.036 179.948 128.534 176.604 128.534 172.478C128.534 168.353 114.036 165.008 96.1517 165.008C78.2674 165.008 63.7693 168.353 63.7693 172.478C63.7693 176.604 78.2674 179.948 96.1517 179.948Z" fill="white"/>
</mask>
<g mask="url(#mask11_195_413)">
<path opacity="0.65" d="M96.1517 179.948C114.036 179.948 128.534 176.604 128.534 172.478C128.534 168.353 114.036 165.008 96.1517 165.008C78.2674 165.008 63.7693 168.353 63.7693 172.478C63.7693 176.604 78.2674 179.948 96.1517 179.948Z" fill="black"/>
</g>
<path d="M96.1517 179.948C114.036 179.948 128.534 176.604 128.534 172.478C128.534 168.353 114.036 165.008 96.1517 165.008C78.2674 165.008 63.7693 168.353 63.7693 172.478C63.7693 176.604 78.2674 179.948 96.1517 179.948Z" stroke="#263238" stroke-width="1.14333" stroke-linecap="round" stroke-linejoin="round"/>
<path d="M64.5251 195.959C64.5251 195.959 59.7787 187.238 61.2106 184.456C62.6424 181.674 69.0659 184.262 70.8955 186.836C72.7251 189.41 74.369 196.549 73.4543 196.743C72.5395 196.937 71.0811 197.138 70.7099 195.758C70.3386 194.378 68.5223 188.425 67.3954 187.627C66.2685 186.829 63.7428 185.254 63.7428 187.037C63.7428 188.82 66.4872 194.946 66.116 195.952C65.7448 196.959 65.6255 197.146 64.5251 195.959Z" fill="#263238"/>
<path d="M189.766 191.84H137.908V253.274C137.908 256.97 149.568 259.968 163.946 259.968C178.324 259.968 189.985 256.97 189.985 253.274L189.766 191.84Z" fill="white"/>
<mask id="mask12_195_413" style="mask-type:luminance" maskUnits="userSpaceOnUse" x="137" y="191" width="53" height="69">
<path d="M189.766 191.84H137.908V253.274C137.908 256.97 149.568 259.968 163.946 259.968C178.324 259.968 189.985 256.97 189.985 253.274L189.766 191.84Z" fill="white"/>
</mask>
<g mask="url(#mask12_195_413)">
<path opacity="0.42" d="M189.766 191.84H137.908V253.274C137.908 256.97 149.568 259.968 163.946 259.968C178.324 259.968 189.985 256.97 189.985 253.274L189.766 191.84Z" fill="black"/>
</g>
<path d="M189.766 191.84H137.908V253.274C137.908 256.97 149.568 259.968 163.946 259.968C178.324 259.968 189.985 256.97 189.985 253.274L189.766 191.84Z" stroke="#263238" stroke-width="1.14333" stroke-linecap="round" stroke-linejoin="round"/>
<path d="M150.244 191.84V258.961C154.198 259.566 158.183 259.897 162.176 259.953V191.84H150.244Z" fill="#263238"/>
<path d="M166.684 191.84V259.932C167.965 259.894 169.212 259.836 170.423 259.759V191.84H166.684Z" fill="#263238"/>
<path d="M172.292 191.84V259.616C173.585 259.501 174.837 259.364 176.031 259.206V191.84H172.292Z" fill="white"/>
<path d="M163.946 182.033C157.244 182.033 150.41 182.508 143.874 184.19C140.214 185.132 133.566 187.13 135.117 192.817C135.78 195.37 138.524 196.347 140.606 197.131C143.17 198.054 145.809 198.714 148.487 199.101C153.604 199.93 158.773 200.329 163.946 200.295C170.648 200.295 177.489 199.82 184.032 198.138C186.683 197.455 189.998 196.7 191.854 194.363C192.262 193.867 192.573 193.287 192.767 192.656C192.962 192.026 193.036 191.36 192.986 190.697C192.936 190.035 192.762 189.391 192.475 188.804C192.188 188.216 191.794 187.698 191.317 187.281C189.116 185.477 186.047 184.715 183.415 184.068C179.196 183.093 174.911 182.49 170.602 182.263C168.387 182.11 166.169 182.033 163.946 182.033Z" fill="white"/>
<mask id="mask13_195_413" style="mask-type:luminance" maskUnits="userSpaceOnUse" x="134" y="182" width="60" height="19">
<path d="M163.946 182.033C157.244 182.033 150.41 182.508 143.874 184.19C140.214 185.132 133.566 187.13 135.117 192.817C135.78 195.37 138.524 196.347 140.606 197.131C143.17 198.054 145.809 198.714 148.487 199.101C153.604 199.93 158.773 200.329 163.946 200.295C170.648 200.295 177.489 199.82 184.032 198.138C186.683 197.455 189.998 196.7 191.854 194.363C192.262 193.867 192.573 193.287 192.767 192.656C192.962 192.026 193.036 191.36 192.986 190.697C192.936 190.035 192.762 189.391 192.475 188.804C192.188 188.216 191.794 187.698 191.317 187.281C189.116 185.477 186.047 184.715 183.415 184.068C179.196 183.093 174.911 182.49 170.602 182.263C168.387 182.11 166.169 182.033 163.946 182.033Z" fill="white"/>
</mask>
<g mask="url(#mask13_195_413)">
<path opacity="0.42" d="M163.946 182.033C157.244 182.033 150.41 182.508 143.874 184.19C140.214 185.132 133.566 187.13 135.117 192.817C135.78 195.37 138.524 196.347 140.606 197.131C143.17 198.054 145.809 198.714 148.487 199.101C153.604 199.93 158.773 200.329 163.946 200.295C170.648 200.295 177.489 199.82 184.032 198.138C186.683 197.455 189.998 196.7 191.854 194.363C192.262 193.867 192.573 193.287 192.767 192.656C192.962 192.026 193.036 191.36 192.986 190.697C192.936 190.035 192.762 189.391 192.475 188.804C192.188 188.216 191.794 187.698 191.317 187.281C189.116 185.477 186.047 184.715 183.415 184.068C179.196 183.093 174.911 182.49 170.602 182.263C168.387 182.11 166.169 182.033 163.946 182.033Z" fill="black"/>
</g>
<path d="M163.946 182.033C157.244 182.033 150.41 182.508 143.874 184.19C140.214 185.132 133.566 187.13 135.117 192.817C135.78 195.37 138.524 196.347 140.606 197.131C143.17 198.054 145.809 198.714 148.487 199.101C153.604 199.93 158.773 200.329 163.946 200.295C170.648 200.295 177.489 199.82 184.032 198.138C186.683 197.455 189.998 196.7 191.854 194.363C192.262 193.867 192.573 193.287 192.767 192.656C192.962 192.026 193.036 191.36 192.986 190.697C192.936 190.035 192.762 189.391 192.475 188.804C192.188 188.216 191.794 187.698 191.317 187.281C189.116 185.477 186.047 184.715 183.415 184.068C179.196 183.093 174.911 182.49 170.602 182.263C168.387 182.11 166.169 182.033 163.946 182.033Z" stroke="#263238" stroke-width="1.14333" stroke-linecap="round" stroke-linejoin="round"/>
<path d="M163.946 195.7C178.312 195.7 189.958 193.013 189.958 189.697C189.958 186.382 178.312 183.694 163.946 183.694C149.58 183.694 137.934 186.382 137.934 189.697C137.934 193.013 149.58 195.7 163.946 195.7Z" fill="white"/>
<mask id="mask14_195_413" style="mask-type:luminance" maskUnits="userSpaceOnUse" x="137" y="183" width="53" height="13">
<path d="M163.946 195.7C178.312 195.7 189.958 193.013 189.958 189.697C189.958 186.382 178.312 183.694 163.946 183.694C149.58 183.694 137.934 186.382 137.934 189.697C137.934 193.013 149.58 195.7 163.946 195.7Z" fill="white"/>
</mask>
<g mask="url(#mask14_195_413)">
<path opacity="0.65" d="M163.946 195.7C178.312 195.7 189.958 193.013 189.958 189.697C189.958 186.382 178.312 183.694 163.946 183.694C149.58 183.694 137.934 186.382 137.934 189.697C137.934 193.013 149.58 195.7 163.946 195.7Z" fill="black"/>
</g>
<path d="M163.946 195.7C178.312 195.7 189.958 193.013 189.958 189.697C189.958 186.382 178.312 183.694 163.946 183.694C149.58 183.694 137.934 186.382 137.934 189.697C137.934 193.013 149.58 195.7 163.946 195.7Z" stroke="#263238" stroke-width="1.14333" stroke-linecap="round" stroke-linejoin="round"/>
<path d="M138.544 208.555C138.544 208.555 134.726 201.553 135.892 199.324C137.059 197.095 142.203 199.166 143.675 201.229C145.146 203.292 146.459 209.03 145.73 209.188C145.001 209.346 143.821 209.511 143.529 208.397C143.237 207.283 141.766 202.509 140.877 201.869C139.989 201.229 137.941 199.957 137.941 201.394C137.941 202.832 140.148 207.757 139.85 208.584C139.552 209.411 139.426 209.511 138.544 208.555Z" fill="#263238"/>
<path d="M79.2546 140.082C79.2546 144.539 82.9734 144.539 82.9734 148.99C82.9734 153.44 79.2546 153.44 79.2546 157.898C79.2546 162.355 82.9734 162.348 82.9734 166.806C82.9734 171.263 79.2546 171.263 79.2546 175.713" stroke="#263238" stroke-width="1.14333" stroke-linecap="round" stroke-linejoin="round"/>
<path d="M82.9734 131.181C82.9734 133.985 81.4952 135.021 80.4014 136.523" stroke="#263238" stroke-width="1.14333" stroke-linecap="round" stroke-linejoin="round"/>
<path d="M96.5561 139.744C96.5561 143.339 92.8373 143.339 92.8373 146.934C92.8373 150.528 96.5561 150.528 96.5561 154.123C96.5561 157.718 92.8373 157.718 92.8373 161.313C92.8373 164.908 96.5561 164.908 96.5561 168.502C96.5561 172.097 92.8373 172.097 92.8373 175.692" stroke="#263238" stroke-width="1.14333" stroke-linecap="round" stroke-linejoin="round"/>
<path d="M110.139 131.181C110.139 135.632 106.42 135.632 106.42 140.082C106.42 144.532 110.139 144.54 110.139 148.99C110.139 153.44 106.42 153.44 106.42 157.898C106.42 162.355 110.139 162.348 110.139 166.806C110.139 171.263 106.42 171.263 106.42 175.713" stroke="#263238" stroke-width="1.14333" stroke-linecap="round" stroke-linejoin="round"/>
<path d="M153.956 167.963C154.259 168.577 154.41 169.266 154.394 169.962C154.394 173.312 151.59 173.312 151.59 176.67C151.59 180.027 154.394 180.027 154.394 183.385C154.394 186.742 151.59 186.749 151.59 190.107" stroke="#263238" stroke-width="1.14333" stroke-linecap="round" stroke-linejoin="round"/>
<path d="M164.635 162.988C164.635 165.698 161.831 165.698 161.831 168.409C161.831 171.119 164.635 171.119 164.635 173.83C164.635 176.54 161.831 176.54 161.831 179.258C161.831 181.976 164.635 181.968 164.635 184.679C164.635 187.389 161.831 187.389 161.831 190.107" stroke="#263238" stroke-width="1.14333" stroke-linecap="round" stroke-linejoin="round"/>
<path d="M173.585 173.219C172.855 174.096 172.093 174.93 172.093 176.677C172.093 180.034 174.897 180.034 174.897 183.392C174.897 186.749 172.093 186.757 172.093 190.114" stroke="#263238" stroke-width="1.14333" stroke-linecap="round" stroke-linejoin="round"/>
</svg>
